<mxfile host="app.diagrams.net" modified="2022-09-26T08:18:55.371Z" agent="5.0 (Windows NT 10.0; Win64; x64) AppleWebKit/537.36 (KHTML, like Gecko) Chrome/105.0.0.0 Safari/537.36 Edg/105.0.1343.42" etag="A2H2lZ57On2TXHEHjqbP" version="20.3.6" type="github">
  <diagram name="Page-1" id="13e1069c-82ec-6db2-03f1-153e76fe0fe0">
    <mxGraphModel dx="2462" dy="1112" grid="1" gridSize="10" guides="1" tooltips="1" connect="1" arrows="1" fold="1" page="1" pageScale="1" pageWidth="1100" pageHeight="850" background="none" math="0" shadow="0">
      <root>
        <mxCell id="0" />
        <mxCell id="1" parent="0" />
        <mxCell id="9QqRfi-hV9s9Fl261OAr-6" value="Actor" style="shape=umlActor;verticalLabelPosition=bottom;verticalAlign=top;html=1;" vertex="1" parent="1">
          <mxGeometry x="70" y="60" width="30" height="60" as="geometry" />
        </mxCell>
        <mxCell id="9QqRfi-hV9s9Fl261OAr-8" value="&lt;span style=&quot;color: rgb(50, 50, 50); font-family: 微软雅黑; font-size: 13px; background-color: rgba(255, 255, 255, 0.01);&quot;&gt;创建预处理规则界面&lt;/span&gt;" style="rounded=1;whiteSpace=wrap;html=1;" vertex="1" parent="1">
          <mxGeometry x="-520" y="80" width="120" height="60" as="geometry" />
        </mxCell>
        <mxCell id="9QqRfi-hV9s9Fl261OAr-9" value="&lt;span style=&quot;color: rgb(50, 50, 50); font-family: 微软雅黑; font-size: 13px; background-color: rgba(255, 255, 255, 0.01);&quot;&gt;新增数据源规则弹框&lt;/span&gt;" style="rounded=1;whiteSpace=wrap;html=1;" vertex="1" parent="1">
          <mxGeometry x="-230" y="80" width="120" height="60" as="geometry" />
        </mxCell>
        <mxCell id="9QqRfi-hV9s9Fl261OAr-10" value="&lt;span style=&quot;color: rgb(50, 50, 50); font-family: 微软雅黑; font-size: 13px; background-color: rgba(255, 255, 255, 0.01);&quot;&gt;预处理规则列表页&lt;/span&gt;" style="rounded=1;whiteSpace=wrap;html=1;" vertex="1" parent="1">
          <mxGeometry x="30" y="80" width="120" height="60" as="geometry" />
        </mxCell>
        <mxCell id="9QqRfi-hV9s9Fl261OAr-11" value="&lt;span style=&quot;color: rgb(50, 50, 50); font-family: 微软雅黑; font-size: 13px; background-color: rgba(255, 255, 255, 0.01);&quot;&gt;server&lt;/span&gt;" style="ellipse;shape=cloud;whiteSpace=wrap;html=1;" vertex="1" parent="1">
          <mxGeometry x="350" y="70" width="120" height="80" as="geometry" />
        </mxCell>
        <mxCell id="9QqRfi-hV9s9Fl261OAr-13" value="Actor" style="shape=umlActor;verticalLabelPosition=bottom;verticalAlign=top;html=1;" vertex="1" parent="1">
          <mxGeometry x="-850" y="80" width="30" height="60" as="geometry" />
        </mxCell>
        <mxCell id="9QqRfi-hV9s9Fl261OAr-14" value="" style="html=1;points=[];perimeter=orthogonalPerimeter;" vertex="1" parent="1">
          <mxGeometry x="-840" y="200" width="10" height="650" as="geometry" />
        </mxCell>
        <mxCell id="9QqRfi-hV9s9Fl261OAr-21" value="" style="html=1;points=[];perimeter=orthogonalPerimeter;" vertex="1" parent="1">
          <mxGeometry x="-470" y="220" width="10" height="30" as="geometry" />
        </mxCell>
        <mxCell id="9QqRfi-hV9s9Fl261OAr-22" value="1.填写预处理基本规则信息" style="html=1;verticalAlign=bottom;startArrow=oval;endArrow=block;startSize=8;rounded=0;exitX=1.3;exitY=0.034;exitDx=0;exitDy=0;exitPerimeter=0;" edge="1" target="9QqRfi-hV9s9Fl261OAr-21" parent="1" source="9QqRfi-hV9s9Fl261OAr-14">
          <mxGeometry relative="1" as="geometry">
            <mxPoint x="-640" y="250" as="sourcePoint" />
          </mxGeometry>
        </mxCell>
        <mxCell id="9QqRfi-hV9s9Fl261OAr-23" value="" style="html=1;points=[];perimeter=orthogonalPerimeter;" vertex="1" parent="1">
          <mxGeometry x="-470" y="260" width="10" height="30" as="geometry" />
        </mxCell>
        <mxCell id="9QqRfi-hV9s9Fl261OAr-24" value="2 点击新增输入数据源" style="html=1;verticalAlign=bottom;startArrow=oval;endArrow=block;startSize=8;rounded=0;exitX=1.3;exitY=0.091;exitDx=0;exitDy=0;exitPerimeter=0;" edge="1" target="9QqRfi-hV9s9Fl261OAr-23" parent="1" source="9QqRfi-hV9s9Fl261OAr-14">
          <mxGeometry relative="1" as="geometry">
            <mxPoint x="-530" y="260" as="sourcePoint" />
          </mxGeometry>
        </mxCell>
        <mxCell id="9QqRfi-hV9s9Fl261OAr-25" value="" style="html=1;points=[];perimeter=orthogonalPerimeter;" vertex="1" parent="1">
          <mxGeometry x="-175" y="290" width="10" height="30" as="geometry" />
        </mxCell>
        <mxCell id="9QqRfi-hV9s9Fl261OAr-26" value="3. 弹框展示" style="html=1;verticalAlign=bottom;startArrow=oval;endArrow=block;startSize=8;rounded=0;exitX=1.1;exitY=1.033;exitDx=0;exitDy=0;exitPerimeter=0;" edge="1" target="9QqRfi-hV9s9Fl261OAr-25" parent="1" source="9QqRfi-hV9s9Fl261OAr-23">
          <mxGeometry relative="1" as="geometry">
            <mxPoint x="-430" y="290" as="sourcePoint" />
          </mxGeometry>
        </mxCell>
        <mxCell id="9QqRfi-hV9s9Fl261OAr-27" value="" style="html=1;points=[];perimeter=orthogonalPerimeter;" vertex="1" parent="1">
          <mxGeometry x="-175" y="330" width="10" height="30" as="geometry" />
        </mxCell>
        <mxCell id="9QqRfi-hV9s9Fl261OAr-28" value="4. 填写数据源信息，点击确定" style="html=1;verticalAlign=bottom;startArrow=oval;endArrow=block;startSize=8;rounded=0;exitX=1.5;exitY=0.198;exitDx=0;exitDy=0;exitPerimeter=0;" edge="1" target="9QqRfi-hV9s9Fl261OAr-27" parent="1" source="9QqRfi-hV9s9Fl261OAr-14">
          <mxGeometry relative="1" as="geometry">
            <mxPoint x="-235" y="330" as="sourcePoint" />
          </mxGeometry>
        </mxCell>
        <mxCell id="9QqRfi-hV9s9Fl261OAr-29" value="" style="html=1;points=[];perimeter=orthogonalPerimeter;" vertex="1" parent="1">
          <mxGeometry x="405" y="360" width="10" height="60" as="geometry" />
        </mxCell>
        <mxCell id="9QqRfi-hV9s9Fl261OAr-30" value="5. 调用【创建数据源规则接口】" style="html=1;verticalAlign=bottom;startArrow=oval;endArrow=block;startSize=8;rounded=0;exitX=1.4;exitY=0.967;exitDx=0;exitDy=0;exitPerimeter=0;" edge="1" target="9QqRfi-hV9s9Fl261OAr-29" parent="1" source="9QqRfi-hV9s9Fl261OAr-27">
          <mxGeometry relative="1" as="geometry">
            <mxPoint x="-60" y="360" as="sourcePoint" />
          </mxGeometry>
        </mxCell>
        <mxCell id="9QqRfi-hV9s9Fl261OAr-33" value="" style="html=1;points=[];perimeter=orthogonalPerimeter;" vertex="1" parent="1">
          <mxGeometry x="-175" y="420" width="10" height="20" as="geometry" />
        </mxCell>
        <mxCell id="9QqRfi-hV9s9Fl261OAr-34" value="6. 返回【结果】" style="html=1;verticalAlign=bottom;endArrow=block;entryX=1;entryY=0;rounded=0;exitX=0.5;exitY=1;exitDx=0;exitDy=0;exitPerimeter=0;" edge="1" target="9QqRfi-hV9s9Fl261OAr-33" parent="1" source="9QqRfi-hV9s9Fl261OAr-29">
          <mxGeometry relative="1" as="geometry">
            <mxPoint x="-105" y="420" as="sourcePoint" />
          </mxGeometry>
        </mxCell>
      </root>
    </mxGraphModel>
  </diagram>
</mxfile>
